<svg width="680" height="561" viewBox="0 0 680 561" fill="none" xmlns="http://www.w3.org/2000/svg">
<rect x="31.5693" width="111.511" height="49.2553" rx="24.6277" fill="#D8663A"/>
<path d="M57.9577 23.1116H71.2471V26.4301H69.459V24.6875H59.6549V26.4301H57.9577V23.1116ZM60.155 25.8543H68.1407V27.5212H60.155V25.8543ZM69.459 18.6717L70.6864 20.1416C67.2618 20.8083 62.534 21.1417 58.5033 21.2629C58.473 20.8083 58.2608 20.1113 58.0941 19.7173C62.1097 19.5809 66.6708 19.2172 69.459 18.6717ZM59.4276 21.5508L61.0187 21.1114C61.3672 21.6569 61.746 22.3842 61.8824 22.8843L60.2156 23.3843C60.0943 22.8843 59.7458 22.1266 59.4276 21.5508ZM63.4281 21.2326L65.0343 20.8689C65.3525 21.475 65.6556 22.2933 65.7313 22.8388L64.0342 23.248C63.9736 22.7176 63.716 21.869 63.4281 21.2326ZM68.2468 20.8386L70.1712 21.2932C69.6409 22.2327 69.0347 23.2177 68.5801 23.8692L67.0951 23.4298C67.5043 22.7025 67.9892 21.6266 68.2468 20.8386ZM67.474 25.8543H67.8528L68.171 25.7937L69.3984 26.5211C67.5952 30.4912 63.4432 32.1732 58.6699 32.8551C58.4881 32.4005 57.9729 31.5974 57.6092 31.2185C62.2764 30.7488 66.1102 29.3699 67.474 26.1422V25.8543ZM61.943 27.0817C63.6402 29.385 67.1103 30.7033 71.5199 31.1125C71.141 31.5216 70.641 32.3096 70.4137 32.8248C65.8526 32.2338 62.4734 30.6427 60.352 27.7333L61.943 27.0817ZM79.1268 20.1264L80.3239 18.7323C81.5513 19.3081 83.1575 20.2628 83.9303 21.0053L82.6272 22.5661C81.9301 21.8084 80.3693 20.778 79.1268 20.1264ZM78.1267 26.2786H85.9912V28.0212H78.1267V26.2786ZM77.0356 30.7791H86.8701V32.5066H77.0356V30.7791ZM77.5811 22.066H86.5518V23.7935H77.5811V22.066ZM81.0361 22.6418H82.9302V31.5519H81.0361V22.6418ZM73.5958 20.1719L74.5808 18.8384C75.5506 19.1869 76.8386 19.8385 77.4751 20.384L76.4143 21.869C75.8234 21.3235 74.5808 20.5962 73.5958 20.1719ZM72.5806 24.2935L73.5201 22.9146C74.505 23.248 75.8234 23.8692 76.475 24.3693L75.4748 25.8846C74.8687 25.3694 73.5807 24.6875 72.5806 24.2935ZM73.2322 31.5822C74.0353 30.4457 75.2021 28.5516 76.1113 26.809L77.4448 28.0061C76.6416 29.6123 75.6718 31.3398 74.7626 32.8096L73.2322 31.5822ZM91.7948 31.264H99.1896V32.5975H91.7948V31.264ZM93.9617 21.9448H95.7195V23.7632H93.9617V21.9448ZM88.3702 22.9904H101.554V26.0058H99.7806V24.3542H90.0825V26.0058H88.3702V22.9904ZM91.7342 24.9906H99.1593V28.3849H91.7342V27.0817H97.3409V26.2938H91.7342V24.9906ZM91.81 29.0668H100.311V33.0066H98.4926V30.4003H91.81V29.0668ZM90.7341 24.9906H92.4616V33.0218H90.7341V24.9906ZM89.9007 19.8233H94.6739V21.2477H89.9007V19.8233ZM96.0377 19.8233H101.917V21.2477H96.0377V19.8233ZM89.9613 18.6414L91.6585 19.096C91.0675 20.4598 90.0977 21.8387 89.2036 22.7025C88.8551 22.4297 88.1278 21.9448 87.7186 21.7326C88.6278 20.975 89.4916 19.793 89.9613 18.6414ZM96.1287 18.6414L97.8561 19.0657C97.3106 20.3689 96.3711 21.6266 95.4619 22.4145C95.0982 22.1418 94.3254 21.7478 93.8708 21.5508C94.8406 20.8538 95.6892 19.7476 96.1287 18.6414ZM90.4614 20.9295L92.007 20.5204C92.3858 21.0356 92.8101 21.763 92.9919 22.2479L91.3554 22.7176C91.219 22.2479 90.825 21.475 90.4614 20.9295ZM97.2348 20.975L98.8259 20.5507C99.2654 21.0508 99.7957 21.7781 100.038 22.263L98.3562 22.7328C98.1592 22.2782 97.6591 21.5053 97.2348 20.975ZM110.251 23.6419V24.9451H114.843V23.6419H110.251ZM110.251 20.9447V22.2175H114.843V20.9447H110.251ZM108.615 19.3991H116.57V26.4756H108.615V19.3991ZM108.509 27.7788H116.737V29.4153H108.509V27.7788ZM107.448 30.87H117.237V32.5066H107.448V30.87ZM103.008 19.6264H108.039V21.3235H103.008V19.6264ZM103.16 23.9905H107.781V25.6725H103.16V23.9905ZM102.842 29.7487C104.145 29.4153 106.084 28.8092 107.903 28.2182L108.221 29.9608C106.524 30.5367 104.705 31.1276 103.251 31.5974L102.842 29.7487ZM104.69 20.2931H106.418V29.6123L104.69 29.8851V20.2931ZM111.812 20.0506H113.343V25.7634H113.509V31.6428H111.646V25.7634H111.812V20.0506Z" fill="white"/>
<rect x="537.938" width="111.511" height="49.2553" rx="24.6277" fill="#D8663A"/>
<path d="M566.857 23.8996H575.1V25.6119H566.857V23.8996ZM565.22 19.3384H569.509V20.9144H565.22V19.3384ZM564.887 27.3393H576.964V29.0062H564.887V27.3393ZM568.872 19.3384H569.19L569.509 19.2778L570.721 19.8385C569.69 22.9297 567.417 25.0967 564.826 26.3241C564.584 25.9149 564.084 25.2936 563.72 24.9603C565.978 24.0208 568.084 21.9599 568.872 19.6567V19.3384ZM568.145 24.7633H569.948V27.3848C569.948 29.5365 569.403 31.7944 565.66 33.0521C565.432 32.6429 564.872 31.9307 564.493 31.6125C567.721 30.5973 568.145 28.9153 568.145 27.3545V24.7633ZM572.615 18.7778C573.585 21.3841 575.57 23.6419 578.237 24.7027C577.813 25.0664 577.252 25.7937 576.964 26.2786C574.145 24.9451 572.176 22.3994 570.994 19.2475L572.615 18.7778ZM564.751 22.0963L565.902 21.1417C566.478 21.5508 567.266 22.1418 567.66 22.5509L566.463 23.5965C566.099 23.2025 565.341 22.5509 564.751 22.0963ZM574.736 19.0051L576.1 19.9597C575.312 20.6871 574.388 21.4447 573.676 21.9145L572.585 21.0811C573.267 20.5507 574.206 19.6567 574.736 19.0051ZM576.54 20.7325L577.873 21.672C577.055 22.4145 576.055 23.2025 575.282 23.7177L574.191 22.8843C574.933 22.3388 575.949 21.4144 576.54 20.7325ZM571.827 24.8391H573.721V30.6427C573.721 31.2034 573.782 31.2792 574.206 31.2792C574.388 31.2792 575.146 31.2792 575.358 31.2792C575.767 31.2792 575.843 30.9913 575.903 29.5669C576.282 29.8548 577.025 30.1578 577.525 30.2639C577.358 32.2793 576.873 32.9006 575.54 32.9006C575.206 32.9006 574.206 32.9006 573.873 32.9006C572.221 32.9006 571.827 32.355 571.827 30.6427V24.8391ZM585.495 20.1264L586.692 18.7323C587.92 19.3081 589.526 20.2628 590.299 21.0053L588.996 22.5661C588.299 21.8084 586.738 20.778 585.495 20.1264ZM584.495 26.2786H592.36V28.0212H584.495V26.2786ZM583.404 30.7791H593.239V32.5066H583.404V30.7791ZM583.95 22.066H592.92V23.7935H583.95V22.066ZM587.405 22.6418H589.299V31.5519H587.405V22.6418ZM579.964 20.1719L580.949 18.8384C581.919 19.1869 583.207 19.8385 583.844 20.384L582.783 21.869C582.192 21.3235 580.949 20.5962 579.964 20.1719ZM578.949 24.2935L579.889 22.9146C580.874 23.248 582.192 23.8692 582.843 24.3693L581.843 25.8846C581.237 25.3694 579.949 24.6875 578.949 24.2935ZM579.601 31.5822C580.404 30.4457 581.571 28.5516 582.48 26.809L583.813 28.0061C583.01 29.6123 582.04 31.3398 581.131 32.8096L579.601 31.5822ZM598.163 31.264H605.558V32.5975H598.163V31.264ZM600.33 21.9448H602.088V23.7632H600.33V21.9448ZM594.739 22.9904H607.922V26.0058H606.149V24.3542H596.451V26.0058H594.739V22.9904ZM598.103 24.9906H605.528V28.3849H598.103V27.0817H603.709V26.2938H598.103V24.9906ZM598.178 29.0668H606.679V33.0066H604.861V30.4003H598.178V29.0668ZM597.103 24.9906H598.83V33.0218H597.103V24.9906ZM596.269 19.8233H601.042V21.2477H596.269V19.8233ZM602.406 19.8233H608.286V21.2477H602.406V19.8233ZM596.33 18.6414L598.027 19.096C597.436 20.4598 596.466 21.8387 595.572 22.7025C595.224 22.4297 594.496 21.9448 594.087 21.7326C594.996 20.975 595.86 19.793 596.33 18.6414ZM602.497 18.6414L604.225 19.0657C603.679 20.3689 602.74 21.6266 601.83 22.4145C601.467 22.1418 600.694 21.7478 600.239 21.5508C601.209 20.8538 602.058 19.7476 602.497 18.6414ZM596.83 20.9295L598.375 20.5204C598.754 21.0356 599.179 21.763 599.36 22.2479L597.724 22.7176C597.587 22.2479 597.194 21.475 596.83 20.9295ZM603.603 20.975L605.194 20.5507C605.634 21.0508 606.164 21.7781 606.407 22.263L604.725 22.7328C604.528 22.2782 604.028 21.5053 603.603 20.975ZM616.62 23.6419V24.9451H621.211V23.6419H616.62ZM616.62 20.9447V22.2175H621.211V20.9447H616.62ZM614.983 19.3991H622.939V26.4756H614.983V19.3991ZM614.877 27.7788H623.105V29.4153H614.877V27.7788ZM613.817 30.87H623.606V32.5066H613.817V30.87ZM609.377 19.6264H614.408V21.3235H609.377V19.6264ZM609.528 23.9905H614.15V25.6725H609.528V23.9905ZM609.21 29.7487C610.513 29.4153 612.453 28.8092 614.271 28.2182L614.589 29.9608C612.892 30.5367 611.074 31.1276 609.619 31.5974L609.21 29.7487ZM611.059 20.2931H612.786V29.6123L611.059 29.8851V20.2931ZM618.181 20.0506H619.711V25.7634H619.878V31.6428H618.014V25.7634H618.181V20.0506Z" fill="white"/>
<rect x="31.5693" y="224.772" width="111.511" height="49.2553" rx="24.6277" fill="#D8663A"/>
<path d="M60.4883 248.672H68.7317V250.384H60.4883V248.672ZM58.8518 244.111H63.1401V245.687H58.8518V244.111ZM58.5184 252.112H70.5955V253.778H58.5184V252.112ZM62.5037 244.111H62.8219L63.1401 244.05L64.3524 244.611C63.322 247.702 61.049 249.869 58.4578 251.096C58.2154 250.687 57.7153 250.066 57.3516 249.732C59.6094 248.793 61.7157 246.732 62.5037 244.429V244.111ZM61.7764 249.536H63.5796V252.157C63.5796 254.309 63.0341 256.567 59.2912 257.824C59.0639 257.415 58.5033 256.703 58.1244 256.385C61.3521 255.369 61.7764 253.687 61.7764 252.127V249.536ZM66.2465 243.55C67.2164 246.156 69.2014 248.414 71.8684 249.475C71.4441 249.839 70.8834 250.566 70.5955 251.051C67.777 249.717 65.8071 247.172 64.6252 244.02L66.2465 243.55ZM58.382 246.869L59.5337 245.914C60.1095 246.323 60.8975 246.914 61.2915 247.323L60.0943 248.369C59.7307 247.975 58.973 247.323 58.382 246.869ZM68.368 243.777L69.7318 244.732C68.9438 245.459 68.0195 246.217 67.3073 246.687L66.2162 245.853C66.8981 245.323 67.8376 244.429 68.368 243.777ZM70.1712 245.505L71.5047 246.444C70.6864 247.187 69.6863 247.975 68.9135 248.49L67.8225 247.657C68.565 247.111 69.5803 246.187 70.1712 245.505ZM65.4586 249.611H67.3527V255.415C67.3527 255.976 67.4133 256.051 67.8376 256.051C68.0195 256.051 68.7771 256.051 68.9893 256.051C69.3984 256.051 69.4742 255.763 69.5348 254.339C69.9136 254.627 70.6561 254.93 71.1562 255.036C70.9895 257.051 70.5046 257.673 69.1711 257.673C68.8377 257.673 67.8376 257.673 67.5043 257.673C65.8526 257.673 65.4586 257.127 65.4586 255.415V249.611ZM79.1268 244.899L80.3239 243.505C81.5513 244.08 83.1575 245.035 83.9303 245.778L82.6272 247.338C81.9301 246.581 80.3693 245.55 79.1268 244.899ZM78.1267 251.051H85.9912V252.793H78.1267V251.051ZM77.0356 255.551H86.8701V257.279H77.0356V255.551ZM77.5811 246.838H86.5518V248.566H77.5811V246.838ZM81.0361 247.414H82.9302V256.324H81.0361V247.414ZM73.5958 244.944L74.5808 243.611C75.5506 243.959 76.8386 244.611 77.4751 245.156L76.4143 246.641C75.8234 246.096 74.5808 245.368 73.5958 244.944ZM72.5806 249.066L73.5201 247.687C74.505 248.02 75.8234 248.641 76.475 249.142L75.4748 250.657C74.8687 250.142 73.5807 249.46 72.5806 249.066ZM73.2322 256.354C74.0353 255.218 75.2021 253.324 76.1113 251.581L77.4448 252.778C76.6416 254.385 75.6718 256.112 74.7626 257.582L73.2322 256.354ZM91.7948 256.036H99.1896V257.37H91.7948V256.036ZM93.9617 246.717H95.7195V248.535H93.9617V246.717ZM88.3702 247.763H101.554V250.778H99.7806V249.126H90.0825V250.778H88.3702V247.763ZM91.7342 249.763H99.1593V253.157H91.7342V251.854H97.3409V251.066H91.7342V249.763ZM91.81 253.839H100.311V257.779H98.4926V255.172H91.81V253.839ZM90.7341 249.763H92.4616V257.794H90.7341V249.763ZM89.9007 244.596H94.6739V246.02H89.9007V244.596ZM96.0377 244.596H101.917V246.02H96.0377V244.596ZM89.9613 243.414L91.6585 243.868C91.0675 245.232 90.0977 246.611 89.2036 247.475C88.8551 247.202 88.1278 246.717 87.7186 246.505C88.6278 245.747 89.4916 244.565 89.9613 243.414ZM96.1287 243.414L97.8561 243.838C97.3106 245.141 96.3711 246.399 95.4619 247.187C95.0982 246.914 94.3254 246.52 93.8708 246.323C94.8406 245.626 95.6892 244.52 96.1287 243.414ZM90.4614 245.702L92.007 245.293C92.3858 245.808 92.8101 246.535 92.9919 247.02L91.3554 247.49C91.219 247.02 90.825 246.247 90.4614 245.702ZM97.2348 245.747L98.8259 245.323C99.2654 245.823 99.7957 246.55 100.038 247.035L98.3562 247.505C98.1592 247.05 97.6591 246.278 97.2348 245.747ZM110.251 248.414V249.717H114.843V248.414H110.251ZM110.251 245.717V246.99H114.843V245.717H110.251ZM108.615 244.171H116.57V251.248H108.615V244.171ZM108.509 252.551H116.737V254.188H108.509V252.551ZM107.448 255.642H117.237V257.279H107.448V255.642ZM103.008 244.399H108.039V246.096H103.008V244.399ZM103.16 248.763H107.781V250.445H103.16V248.763ZM102.842 254.521C104.145 254.188 106.084 253.581 107.903 252.99L108.221 254.733C106.524 255.309 104.705 255.9 103.251 256.37L102.842 254.521ZM104.69 245.065H106.418V254.385L104.69 254.657V245.065ZM111.812 244.823H113.343V250.536H113.509V256.415H111.646V250.536H111.812V244.823Z" fill="white"/>
<rect x="31.5693" y="112.386" width="111.511" height="49.2553" rx="24.6277" fill="#E9AD88"/>
<path d="M59.4275 142.71H69.7923V144.498H59.4275V142.71ZM63.5492 131.3H65.4434V143.801H63.5492V131.3ZM58.5335 138.922H60.3822V145.377H58.5335V138.922ZM68.8225 138.922H70.7167V145.362H68.8225V138.922ZM59.1396 132.573H60.958V136.346H68.1861V132.573H70.1106V138.104H59.1396V132.573ZM77.5659 135.467H86.6427V137.149H77.5659V135.467ZM83.6121 136.3H85.4001V143.362C85.4001 144.286 85.2031 144.756 84.5516 145.014C83.9 145.271 82.9756 145.301 81.7027 145.301C81.6118 144.817 81.3239 144.074 81.0815 143.604C81.9604 143.65 82.9605 143.65 83.2332 143.65C83.5211 143.635 83.6121 143.559 83.6121 143.332V136.3ZM75.7778 134.74L77.5205 135.315C76.6113 137.346 75.1263 139.437 73.6412 140.725C73.4443 140.331 72.8836 139.437 72.5351 139.028C73.8231 137.998 75.0656 136.407 75.7778 134.74ZM78.46 138.134H82.5968V142.589H78.46V141.119H80.9451V139.604H78.46V138.134ZM77.5508 138.134H79.2328V143.453H77.5508V138.134ZM73.0048 132.133H86.5518V133.785H73.0048V132.133ZM76.187 131.148H77.9751V134.906H76.187V131.148ZM81.4906 131.148H83.309V134.906H81.4906V131.148ZM74.5656 138.255L76.3385 136.482V136.497V145.377H74.5656V138.255ZM91.7948 143.65H99.1895V144.983H91.7948V143.65ZM93.9617 134.331H95.7195V136.149H93.9617V134.331ZM88.3702 135.376H101.553V138.392H99.7805V136.74H90.0825V138.392H88.3702V135.376ZM91.7342 137.376H99.1592V140.771H91.7342V139.467H97.3408V138.68H91.7342V137.376ZM91.8099 141.453H100.311V145.392H98.4925V142.786H91.8099V141.453ZM90.7341 137.376H92.4615V145.408H90.7341V137.376ZM89.9006 132.209H94.6739V133.633H89.9006V132.209ZM96.0377 132.209H101.917V133.633H96.0377V132.209ZM89.9612 131.027L91.6584 131.482C91.0674 132.846 90.0976 134.224 89.2036 135.088C88.8551 134.815 88.1277 134.331 87.7186 134.118C88.6278 133.361 89.4915 132.179 89.9612 131.027ZM96.1286 131.027L97.8561 131.451C97.3105 132.755 96.371 134.012 95.4619 134.8C95.0982 134.528 94.3254 134.134 93.8708 133.937C94.8406 133.24 95.6892 132.133 96.1286 131.027ZM90.4613 133.315L92.0069 132.906C92.3858 133.421 92.81 134.149 92.9919 134.634L91.3553 135.103C91.219 134.634 90.825 133.861 90.4613 133.315ZM97.2348 133.361L98.8259 132.936C99.2653 133.436 99.7957 134.164 100.038 134.649L98.3561 135.119C98.1591 134.664 97.6591 133.891 97.2348 133.361ZM110.251 136.028V137.331H114.843V136.028H110.251ZM110.251 133.33V134.603H114.843V133.33H110.251ZM108.615 131.785H116.57V138.861H108.615V131.785ZM108.509 140.165H116.737V141.801H108.509V140.165ZM107.448 143.256H117.237V144.892H107.448V143.256ZM103.008 132.012H108.039V133.709H103.008V132.012ZM103.16 136.376H107.781V138.058H103.16V136.376ZM102.841 142.134C104.145 141.801 106.084 141.195 107.903 140.604L108.221 142.347C106.524 142.922 104.705 143.513 103.251 143.983L102.841 142.134ZM104.69 132.679H106.418V141.998L104.69 142.271V132.679ZM111.812 132.436H113.343V138.149H113.509V144.029H111.645V138.149H111.812V132.436Z" fill="white"/>
<rect x="268.969" y="112.386" width="111.511" height="49.2553" rx="24.6277" fill="#E9AD88"/>
<path d="M295.252 133.255H308.768V134.997H295.252V133.255ZM300.192 138.164H308.132V139.846H300.192V138.164ZM299.601 143.316H308.708V144.998H299.601V143.316ZM303.283 135.649H305.116V144.21H303.283V135.649ZM300.025 131.133L301.919 131.588C300.798 135.24 298.888 138.922 295.646 141.134C295.464 140.619 295.04 139.816 294.767 139.377C297.51 137.588 299.237 134.194 300.025 131.133ZM296.994 137.482H298.828V145.347H296.994V137.482ZM313.526 134.755H323.649V136.119H313.526V134.755ZM312.89 142.286H324.164V143.756H312.89V142.286ZM317.497 133.891H319.224V145.408H317.497V133.891ZM315.542 139.695V140.452H321.285V139.695H315.542ZM315.542 137.922V138.649H321.285V137.922H315.542ZM313.966 136.801H322.952V141.559H313.966V136.801ZM316.678 131.148H318.572V133.285H316.678V131.148ZM312.072 132.33H324.043V133.906H312.072V132.33ZM311.223 132.33H312.951V137.27C312.951 139.68 312.723 143.18 311.329 145.362C311.026 145.044 310.269 144.513 309.875 144.332C311.117 142.331 311.223 139.422 311.223 137.27V132.33ZM329.195 143.65H336.59V144.983H329.195V143.65ZM331.362 134.331H333.12V136.149H331.362V134.331ZM325.77 135.376H338.954V138.392H337.181V136.74H327.483V138.392H325.77V135.376ZM329.134 137.376H336.559V140.771H329.134V139.467H334.741V138.68H329.134V137.376ZM329.21 141.453H337.711V145.392H335.893V142.786H329.21V141.453ZM328.134 137.376H329.862V145.408H328.134V137.376ZM327.301 132.209H332.074V133.633H327.301V132.209ZM333.438 132.209H339.317V133.633H333.438V132.209ZM327.361 131.027L329.058 131.482C328.468 132.846 327.498 134.224 326.604 135.088C326.255 134.815 325.528 134.331 325.119 134.118C326.028 133.361 326.892 132.179 327.361 131.027ZM333.529 131.027L335.256 131.451C334.711 132.755 333.771 134.012 332.862 134.8C332.498 134.528 331.725 134.134 331.271 133.937C332.241 133.24 333.089 132.133 333.529 131.027ZM327.861 133.315L329.407 132.906C329.786 133.421 330.21 134.149 330.392 134.634L328.755 135.103C328.619 134.634 328.225 133.861 327.861 133.315ZM334.635 133.361L336.226 132.936C336.665 133.436 337.196 134.164 337.438 134.649L335.756 135.119C335.559 134.664 335.059 133.891 334.635 133.361ZM347.651 136.028V137.331H352.243V136.028H347.651ZM347.651 133.33V134.603H352.243V133.33H347.651ZM346.015 131.785H353.97V138.861H346.015V131.785ZM345.909 140.165H354.137V141.801H345.909V140.165ZM344.848 143.256H354.637V144.892H344.848V143.256ZM340.408 132.012H345.439V133.709H340.408V132.012ZM340.56 136.376H345.181V138.058H340.56V136.376ZM340.242 142.134C341.545 141.801 343.484 141.195 345.303 140.604L345.621 142.347C343.924 142.922 342.105 143.513 340.651 143.983L340.242 142.134ZM342.09 132.679H343.818V141.998L342.09 142.271V132.679ZM349.212 132.436H350.743V138.149H350.909V144.029H349.046V138.149H349.212V132.436Z" fill="white"/>
<rect x="268.969" y="511.42" width="111.511" height="49.2553" rx="24.6277" fill="#D8663A"/>
<path d="M303.404 530.47H305.268V543.229H303.404V530.47ZM299.358 534.774H309.117V536.531H299.358V534.774ZM299.767 542.078H308.859V543.835H299.767V542.078ZM296.934 534.637L298.707 532.849L298.737 532.88V544.381H296.934V534.637ZM298.54 530.197L300.298 530.758C299.222 533.425 297.494 536.198 295.722 537.926C295.54 537.501 295.009 536.516 294.676 536.077C296.206 534.668 297.676 532.44 298.54 530.197ZM317.678 530.819H323.709V537.365H317.678V535.668H321.876V532.531H317.678V530.819ZM316.678 530.819H318.451V536.41C318.451 538.88 318.163 542.365 316.269 544.441C315.981 544.093 315.269 543.441 314.875 543.214C316.542 541.35 316.678 538.577 316.678 536.395V530.819ZM321.452 536.607C321.815 539.517 322.452 541.305 324.452 542.85C323.997 543.244 323.452 543.881 323.225 544.426C320.846 542.441 320.118 540.168 319.694 536.835L321.452 536.607ZM310.738 534.834H315.315V536.198H310.738V534.834ZM310.784 530.652H315.269V532.031H310.784V530.652ZM310.738 536.895H315.315V538.274H310.738V536.895ZM310.011 532.698H315.815V534.137H310.011V532.698ZM311.526 539.001H315.33V543.608H311.526V542.168H313.784V540.441H311.526V539.001ZM310.708 539.001H312.238V544.214H310.708V539.001ZM329.195 542.684H336.59V544.017H329.195V542.684ZM331.362 533.364H333.12V535.183H331.362V533.364ZM325.77 534.41H338.954V537.426H337.181V535.774H327.483V537.426H325.77V534.41ZM329.134 536.41H336.559V539.805H329.134V538.501H334.741V537.713H329.134V536.41ZM329.21 540.486H337.711V544.426H335.893V541.82H329.21V540.486ZM328.134 536.41H329.862V544.441H328.134V536.41ZM327.301 531.243H332.074V532.667H327.301V531.243ZM333.438 531.243H339.317V532.667H333.438V531.243ZM327.361 530.061L329.059 530.516C328.468 531.879 327.498 533.258 326.604 534.122C326.255 533.849 325.528 533.364 325.119 533.152C326.028 532.395 326.892 531.213 327.361 530.061ZM333.529 530.061L335.256 530.485C334.711 531.789 333.771 533.046 332.862 533.834C332.498 533.561 331.726 533.167 331.271 532.97C332.241 532.273 333.089 531.167 333.529 530.061ZM327.861 532.349L329.407 531.94C329.786 532.455 330.21 533.183 330.392 533.668L328.755 534.137C328.619 533.668 328.225 532.895 327.861 532.349ZM334.635 532.395L336.226 531.97C336.665 532.47 337.196 533.198 337.438 533.683L335.756 534.152C335.559 533.698 335.059 532.925 334.635 532.395ZM347.652 535.062V536.365H352.243V535.062H347.652ZM347.652 532.364V533.637H352.243V532.364H347.652ZM346.015 530.819H353.97V537.895H346.015V530.819ZM345.909 539.198H354.137V540.835H345.909V539.198ZM344.848 542.29H354.637V543.926H344.848V542.29ZM340.408 531.046H345.439V532.743H340.408V531.046ZM340.56 535.41H345.182V537.092H340.56V535.41ZM340.242 541.168C341.545 540.835 343.484 540.229 345.303 539.638L345.621 541.381C343.924 541.956 342.105 542.547 340.651 543.017L340.242 541.168ZM342.09 531.713H343.818V541.032L342.09 541.305V531.713ZM349.212 531.47H350.743V537.183H350.909V543.063H349.046V537.183H349.212V531.47Z" fill="white"/>
<rect width="173.63" height="223.532" transform="translate(506.371 112.386)" fill="#FCF5F0"/>
<path d="M506.371 143.955C506.371 126.52 520.505 112.386 537.94 112.386H648.432C665.867 112.386 680.001 126.52 680.001 143.955V161.641H506.371V143.955Z" fill="#E9AD88"/>
<path d="M568.304 131.891H576.926V133.012H568.304V131.891ZM568.622 133.512H576.623V134.588H568.622V133.512ZM567.637 135.088H577.457V136.3H567.637V135.088ZM571.638 131.133H573.471V135.876H571.638V131.133ZM570.456 139.422V140.028H574.714V139.422H570.456ZM570.456 140.952V141.559H574.714V140.952H570.456ZM570.456 137.922V138.513H574.714V137.922H570.456ZM568.713 136.801H576.548V142.665H568.713V136.801ZM570.501 142.725L572.244 143.377C571.35 144.18 569.926 144.953 568.759 145.408C568.441 145.059 567.744 144.453 567.334 144.165C568.516 143.832 569.789 143.286 570.501 142.725ZM566.471 131.148L568.153 131.679C567.183 134.209 565.607 136.861 563.97 138.558C563.804 138.119 563.319 137.134 563.016 136.694C564.38 135.361 565.698 133.255 566.471 131.148ZM565.061 135.391L566.834 133.618L566.85 133.633V145.362H565.061V135.391ZM573.153 143.392L574.79 142.65C575.79 143.225 576.942 143.983 577.563 144.559L575.926 145.498C575.35 144.923 574.138 143.998 573.153 143.392ZM585.67 132.573H592.337V134.103H585.67V132.573ZM586.458 139.771H592.155V140.937H586.458V139.771ZM586.473 141.65H592.186V142.801H586.473V141.65ZM586.261 143.574H592.716V144.907H586.261V143.574ZM583.957 135.179H592.701V136.725H583.957V135.179ZM589.155 136.573L590.928 136.907C590.549 137.604 590.17 138.255 589.867 138.71L588.352 138.392C588.64 137.876 588.973 137.119 589.155 136.573ZM588.473 138.664H590.079V144.226H588.473V138.664ZM586.973 137.801H592.474V139.073H586.973V145.362H585.306V138.861L586.337 137.801H586.973ZM585.67 131.057L587.337 131.451C586.867 132.936 586.079 134.437 585.246 135.376C584.927 135.103 584.215 134.634 583.821 134.437C584.639 133.618 585.306 132.33 585.67 131.057ZM587.352 133.255L589.034 133.649C588.109 136.77 586.488 139.513 584.442 141.21C584.215 140.877 583.579 140.18 583.215 139.861C585.155 138.422 586.594 136.013 587.352 133.255ZM578.699 134.285H583.715V135.967H578.699V134.285ZM580.548 131.148H582.2V145.377H580.548V131.148ZM580.518 135.437L581.533 135.785C581.094 138.179 580.23 141.104 579.154 142.665C579.002 142.18 578.608 141.483 578.351 141.059C579.321 139.74 580.169 137.361 580.518 135.437ZM582.063 135.937C582.412 136.331 583.685 138.089 583.957 138.498L583.033 139.801C582.669 138.967 581.745 137.331 581.306 136.649L582.063 135.937ZM597.656 143.65H605.051V144.983H597.656V143.65ZM599.823 134.331H601.581V136.149H599.823V134.331ZM594.231 135.376H607.415V138.392H605.642V136.74H595.944V138.392H594.231V135.376ZM597.595 137.376H605.02V140.771H597.595V139.467H603.202V138.68H597.595V137.376ZM597.671 141.453H606.172V145.392H604.354V142.786H597.671V141.453ZM596.595 137.376H598.323V145.408H596.595V137.376ZM595.762 132.209H600.535V133.633H595.762V132.209ZM601.899 132.209H607.778V133.633H601.899V132.209ZM595.822 131.027L597.52 131.482C596.929 132.846 595.959 134.224 595.065 135.088C594.716 134.815 593.989 134.331 593.58 134.118C594.489 133.361 595.353 132.179 595.822 131.027ZM601.99 131.027L603.717 131.451C603.172 132.755 602.232 134.012 601.323 134.8C600.959 134.528 600.187 134.134 599.732 133.937C600.702 133.24 601.55 132.133 601.99 131.027ZM596.323 133.315L597.868 132.906C598.247 133.421 598.671 134.149 598.853 134.634L597.217 135.103C597.08 134.634 596.686 133.861 596.323 133.315ZM603.096 133.361L604.687 132.936C605.127 133.436 605.657 134.164 605.899 134.649L604.217 135.119C604.02 134.664 603.52 133.891 603.096 133.361ZM616.113 136.028V137.331H620.704V136.028H616.113ZM616.113 133.33V134.603H620.704V133.33H616.113ZM614.476 131.785H622.431V138.861H614.476V131.785ZM614.37 140.165H622.598V141.801H614.37V140.165ZM613.309 143.256H623.098V144.892H613.309V143.256ZM608.869 132.012H613.9V133.709H608.869V132.012ZM609.021 136.376H613.643V138.058H609.021V136.376ZM608.703 142.134C610.006 141.801 611.945 141.195 613.764 140.604L614.082 142.347C612.385 142.922 610.567 143.513 609.112 143.983L608.703 142.134ZM610.551 132.679H612.279V141.998L610.551 142.271V132.679ZM617.673 132.436H619.204V138.149H619.371V144.029H617.507V138.149H617.673V132.436Z" fill="#863126"/>
<path d="M679.37 162.273V291.721C679.37 315.782 659.865 335.287 635.804 335.287H550.568C526.507 335.287 507.003 315.782 507.002 291.721V162.273H679.37Z" stroke="#E9AD88" stroke-width="1.26277"/>
<rect x="532.626" y="187.896" width="121.12" height="47.2553" rx="23.6277" fill="white"/>
<rect x="532.626" y="187.896" width="121.12" height="47.2553" rx="23.6277" stroke="#E9AD88" stroke-width="2"/>
<path d="M566.139 205.947H568.002V218.706H566.139V205.947ZM562.093 210.251H571.851V212.008H562.093V210.251ZM562.502 217.554H571.594V219.312H562.502V217.554ZM559.668 210.114L561.441 208.326L561.471 208.356V219.858H559.668V210.114ZM561.274 205.674L563.032 206.235C561.956 208.902 560.229 211.675 558.456 213.402C558.274 212.978 557.744 211.993 557.41 211.554C558.941 210.144 560.411 207.917 561.274 205.674ZM575.776 206.508H580.064V208.356H575.776V206.508ZM579.17 206.508H581.049C581.049 209.387 581.458 214.963 587.08 218.251C586.656 218.585 585.929 219.388 585.61 219.842C579.837 216.372 579.17 209.599 579.17 206.508ZM578.519 209.826L580.61 210.205C579.549 214.706 577.534 217.964 574.367 219.873C574.033 219.479 573.185 218.721 572.715 218.388C575.882 216.782 577.7 213.842 578.519 209.826ZM591.005 221.585C589.565 219.252 588.732 216.782 588.732 213.751C588.732 210.735 589.565 208.25 591.005 205.917L592.384 206.508C591.111 208.72 590.535 211.281 590.535 213.751C590.535 216.236 591.111 218.797 592.384 221.009L591.005 221.585ZM596.656 206.508H600.944V208.356H596.656V206.508ZM600.05 206.508H601.929C601.929 209.387 602.338 214.963 607.96 218.251C607.536 218.585 606.809 219.388 606.49 219.842C600.717 216.372 600.05 209.599 600.05 206.508ZM599.399 209.826L601.49 210.205C600.429 214.706 598.414 217.964 595.247 219.873C594.913 219.479 594.065 218.721 593.595 218.388C596.762 216.782 598.58 213.842 599.399 209.826ZM612.294 209.266H622.416V210.629H612.294V209.266ZM611.658 216.797H622.932V218.267H611.658V216.797ZM616.264 208.402H617.992V219.918H616.264V208.402ZM614.309 214.206V214.963H620.053V214.206H614.309ZM614.309 212.433V213.16H620.053V212.433H614.309ZM612.734 211.311H621.719V216.069H612.734V211.311ZM615.446 205.659H617.34V207.796H615.446V205.659ZM610.839 206.841H622.81V208.417H610.839V206.841ZM609.991 206.841H611.718V211.781C611.718 214.19 611.491 217.691 610.097 219.873C609.794 219.555 609.036 219.024 608.642 218.842C609.885 216.842 609.991 213.933 609.991 211.781V206.841ZM625.659 221.585L624.265 221.009C625.538 218.797 626.129 216.236 626.129 213.751C626.129 211.281 625.538 208.72 624.265 206.508L625.659 205.917C627.084 208.25 627.917 210.735 627.917 213.751C627.917 216.782 627.084 219.252 625.659 221.585Z" fill="#D8663A"/>
<rect x="532.626" y="262.407" width="121.12" height="47.2553" rx="23.6277" fill="white"/>
<rect x="532.626" y="262.407" width="121.12" height="47.2553" rx="23.6277" stroke="#E9AD88" stroke-width="2"/>
<path d="M567.865 287.383C569.426 290.368 572.729 292.11 577.608 292.656C577.199 293.08 576.699 293.914 576.442 294.429C571.335 293.701 568.123 291.671 566.153 287.973L567.865 287.383ZM564.668 285.731H574.381V287.504H564.668V285.731ZM563.925 282.17H576.911V283.973H563.925V282.17ZM569.456 280.17H571.35V286.534H569.456V280.17ZM573.79 285.731H574.184L574.502 285.67L575.775 286.398C573.957 291.307 569.547 293.52 564.289 294.398C564.122 293.914 563.652 293.05 563.304 292.641C568.395 291.974 572.411 290.186 573.79 286.064V285.731ZM586.776 280.564L588.776 280.882C588.155 284.988 587.079 289.777 586.125 292.898L584.397 292.535C585.337 289.383 586.352 284.443 586.776 280.564ZM582.942 292.171C584.958 292.004 588.185 291.641 591.186 291.277L591.246 292.974C588.473 293.398 585.488 293.792 583.351 294.08L582.942 292.171ZM588.488 287.564L590.11 287.004C591.246 289.125 592.459 291.898 592.898 293.701L591.095 294.383C590.746 292.61 589.61 289.762 588.488 287.564ZM578.624 283.064H584.503V284.761H578.624V283.064ZM580.775 280.154H582.564V292.398C582.564 293.323 582.382 293.792 581.851 294.065C581.291 294.353 580.503 294.398 579.351 294.398C579.275 293.929 579.048 293.171 578.821 292.701C579.503 292.732 580.245 292.716 580.472 292.716C580.7 292.701 580.775 292.626 580.775 292.398V280.154ZM578.396 287.807C579.942 287.564 582.321 287.11 584.549 286.67L584.685 288.277C582.639 288.746 580.442 289.231 578.775 289.595L578.396 287.807ZM597.656 292.671H605.051V294.004H597.656V292.671ZM599.823 283.352H601.581V285.17H599.823V283.352ZM594.231 284.397H607.415V287.413H605.642V285.761H595.944V287.413H594.231V284.397ZM597.595 286.398H605.021V289.792H597.595V288.489H603.202V287.701H597.595V286.398ZM597.671 290.474H606.172V294.414H604.354V291.807H597.671V290.474ZM596.595 286.398H598.323V294.429H596.595V286.398ZM595.762 281.23H600.535V282.655H595.762V281.23ZM601.899 281.23H607.778V282.655H601.899V281.23ZM595.823 280.048L597.52 280.503C596.929 281.867 595.959 283.246 595.065 284.109C594.716 283.837 593.989 283.352 593.58 283.14C594.489 282.382 595.353 281.2 595.823 280.048ZM601.99 280.048L603.717 280.473C603.172 281.776 602.232 283.034 601.323 283.822C600.96 283.549 600.187 283.155 599.732 282.958C600.702 282.261 601.55 281.155 601.99 280.048ZM596.323 282.337L597.868 281.927C598.247 282.443 598.671 283.17 598.853 283.655L597.217 284.125C597.08 283.655 596.686 282.882 596.323 282.337ZM603.096 282.382L604.687 281.958C605.127 282.458 605.657 283.185 605.899 283.67L604.217 284.14C604.02 283.685 603.52 282.912 603.096 282.382ZM616.113 285.049V286.352H620.704V285.049H616.113ZM616.113 282.352V283.625H620.704V282.352H616.113ZM614.476 280.806H622.432V287.883H614.476V280.806ZM614.37 289.186H622.598V290.822H614.37V289.186ZM613.309 292.277H623.098V293.914H613.309V292.277ZM608.869 281.033H613.9V282.73H608.869V281.033ZM609.021 285.397H613.643V287.079H609.021V285.397ZM608.703 291.156C610.006 290.822 611.946 290.216 613.764 289.625L614.082 291.368C612.385 291.944 610.567 292.535 609.112 293.004L608.703 291.156ZM610.551 281.7H612.279V291.019L610.551 291.292V281.7ZM617.673 281.458H619.204V287.17H619.371V293.05H617.507V287.17H617.673V281.458Z" fill="#D8663A"/>
<path d="M0.000244141 368.728C0.000244141 351.293 14.1342 337.159 31.5694 337.159H142.062C159.497 337.159 173.631 351.293 173.631 368.728V386.415H0.000244141V368.728Z" fill="#E9AD88"/>
<path d="M61.9339 356.664H70.5561V357.786H61.9339V356.664ZM62.2522 358.286H70.253V359.362H62.2522V358.286ZM61.2672 359.862H71.0865V361.074H61.2672V359.862ZM65.2676 355.907H67.1012V360.65H65.2676V355.907ZM64.0857 364.195V364.802H68.3437V364.195H64.0857ZM64.0857 365.726V366.332H68.3437V365.726H64.0857ZM64.0857 362.695V363.286H68.3437V362.695H64.0857ZM62.3431 361.574H70.1773V367.438H62.3431V361.574ZM64.1312 367.499L65.8738 368.15C64.9797 368.954 63.5553 369.726 62.3885 370.181C62.0703 369.832 61.3733 369.226 60.9641 368.938C62.1461 368.605 63.419 368.06 64.1312 367.499ZM60.1004 355.922L61.7824 356.452C60.8126 358.983 59.2367 361.635 57.6001 363.332C57.4334 362.892 56.9485 361.907 56.6455 361.468C58.0093 360.134 59.3276 358.028 60.1004 355.922ZM58.6912 360.165L60.4641 358.392L60.4792 358.407V370.135H58.6912V360.165ZM66.783 368.166L68.4195 367.423C69.4196 367.999 70.5713 368.757 71.1925 369.332L69.556 370.272C68.9802 369.696 67.7679 368.772 66.783 368.166ZM79.2995 357.346H85.9669V358.877H79.2995V357.346ZM80.0875 364.544H85.7851V365.711H80.0875V364.544ZM80.1026 366.423H85.8154V367.575H80.1026V366.423ZM79.8905 368.347H86.3457V369.681H79.8905V368.347ZM77.5872 359.953H86.3306V361.498H77.5872V359.953ZM82.7847 361.347L84.5577 361.68C84.1788 362.377 83.8 363.029 83.4969 363.483L81.9816 363.165C82.2695 362.65 82.6029 361.892 82.7847 361.347ZM82.1028 363.438H83.7091V368.999H82.1028V363.438ZM80.6027 362.574H86.1033V363.847H80.6027V370.135H78.9358V363.635L79.9662 362.574H80.6027ZM79.2995 355.831L80.9664 356.225C80.4966 357.71 79.7086 359.21 78.8752 360.15C78.557 359.877 77.8448 359.407 77.4508 359.21C78.2691 358.392 78.9358 357.104 79.2995 355.831ZM80.9815 358.028L82.6635 358.422C81.7392 361.544 80.1178 364.286 78.0721 365.984C77.8448 365.65 77.2084 364.953 76.8447 364.635C78.7843 363.195 80.2238 360.786 80.9815 358.028ZM72.329 359.059H77.3447V360.741H72.329V359.059ZM74.1777 355.922H75.8294V370.151H74.1777V355.922ZM74.1474 360.21L75.1627 360.559C74.7232 362.953 73.8595 365.877 72.7836 367.438C72.6321 366.953 72.2381 366.256 71.9805 365.832C72.9503 364.514 73.7989 362.135 74.1474 360.21ZM75.693 360.71C76.0416 361.104 77.3144 362.862 77.5872 363.271L76.6628 364.574C76.2992 363.741 75.3748 362.104 74.9354 361.422L75.693 360.71ZM91.2857 368.423H98.6804V369.757H91.2857V368.423ZM93.4526 359.104H95.2104V360.922H93.4526V359.104ZM87.8611 360.15H101.044V363.165H99.2714V361.513H89.5734V363.165H87.8611V360.15ZM91.2251 362.15H98.6501V365.544H91.2251V364.241H96.8318V363.453H91.2251V362.15ZM91.3008 366.226H99.8018V370.166H97.9834V367.559H91.3008V366.226ZM90.225 362.15H91.9524V370.181H90.225V362.15ZM89.3915 356.983H94.1648V358.407H89.3915V356.983ZM95.5286 356.983H101.408V358.407H95.5286V356.983ZM89.4521 355.801L91.1493 356.255C90.5583 357.619 89.5885 358.998 88.6945 359.862C88.346 359.589 87.6186 359.104 87.2095 358.892C88.1187 358.134 88.9824 356.952 89.4521 355.801ZM95.6195 355.801L97.347 356.225C96.8014 357.528 95.862 358.786 94.9528 359.574C94.5891 359.301 93.8163 358.907 93.3617 358.71C94.3315 358.013 95.1801 356.907 95.6195 355.801ZM89.9522 358.089L91.4978 357.68C91.8767 358.195 92.3009 358.922 92.4828 359.407L90.8462 359.877C90.7099 359.407 90.3159 358.634 89.9522 358.089ZM96.7257 358.134L98.3168 357.71C98.7562 358.21 99.2866 358.937 99.529 359.422L97.847 359.892C97.65 359.437 97.15 358.665 96.7257 358.134ZM109.742 360.801V362.104H114.334V360.801H109.742ZM109.742 358.104V359.377H114.334V358.104H109.742ZM108.106 356.558H116.061V363.635H108.106V356.558ZM108 364.938H116.228V366.574H108V364.938ZM106.939 368.029H116.728V369.666H106.939V368.029ZM102.499 356.786H107.53V358.483H102.499V356.786ZM102.651 361.15H107.272V362.832H102.651V361.15ZM102.332 366.908C103.636 366.574 105.575 365.968 107.394 365.377L107.712 367.12C106.015 367.696 104.196 368.287 102.742 368.757L102.332 366.908ZM104.181 357.452H105.909V366.771L104.181 367.044V357.452ZM111.303 357.21H112.834V362.923H113V368.802H111.136V362.923H111.303V357.21Z" fill="#863126"/>
<path d="M172.999 387.046V516.495C172.999 540.555 153.494 560.06 129.434 560.06H44.1975C20.1371 560.06 0.632229 540.555 0.63208 516.495V387.046H172.999Z" fill="#FCF5F0"/>
<path d="M172.999 387.046V516.495C172.999 540.555 153.494 560.06 129.434 560.06H44.1975C20.1371 560.06 0.632229 540.555 0.63208 516.495V387.046H172.999Z" stroke="#E9AD88" stroke-width="1.26277"/>
<rect x="26.2556" y="412.67" width="121.12" height="47.2553" rx="23.6277" fill="white"/>
<rect x="26.2556" y="412.67" width="121.12" height="47.2553" rx="23.6277" stroke="#E9AD88" stroke-width="2"/>
<path d="M57.3728 431.645H70.7833V433.296H57.3728V431.645ZM58.8275 434.281H69.4044V435.873H58.8275V434.281ZM57.5849 436.63H70.6015V439.873H68.768V438.252H59.3275V439.873H57.5849V436.63ZM63.0552 430.448H64.9494V435.16H63.0552V430.448ZM64.8736 438.736H66.7071V442.297C66.7071 442.782 66.7981 442.843 67.3284 442.843C67.586 442.843 68.571 442.843 68.8589 442.843C69.3589 442.843 69.465 442.601 69.5105 441.04C69.8893 441.328 70.6621 441.616 71.147 441.722C70.95 443.919 70.4803 444.48 69.0407 444.48C68.6619 444.48 67.4345 444.48 67.086 444.48C65.313 444.48 64.8736 443.964 64.8736 442.328V438.736ZM61.1308 438.721H63.0249C62.7976 441.782 62.1309 443.722 57.9486 444.722C57.7819 444.237 57.3273 443.525 56.9485 443.146C60.5852 442.434 60.9489 441.085 61.1308 438.721ZM78.7994 434.979H85.1031V436.812H78.7994V434.979ZM72.3138 442.085H86.1638V443.919H72.3138V442.085ZM77.769 430.614H79.7237V443.101H77.769V430.614ZM91.2856 442.934H98.6804V444.267H91.2856V442.934ZM93.4525 433.615H95.2103V435.433H93.4525V433.615ZM87.861 434.66H101.044V437.676H99.2714V436.024H89.5733V437.676H87.861V434.66ZM91.225 436.661H98.6501V440.055H91.225V438.752H96.8317V437.964H91.225V436.661ZM91.3008 440.737H99.8017V444.677H97.9833V442.07H91.3008V440.737ZM90.2249 436.661H91.9524V444.692H90.2249V436.661ZM89.3915 431.493H94.1647V432.918H89.3915V431.493ZM95.5285 431.493H101.408V432.918H95.5285V431.493ZM89.4521 430.311L91.1492 430.766C90.5583 432.13 89.5885 433.509 88.6944 434.372C88.3459 434.1 87.6185 433.615 87.2094 433.403C88.1186 432.645 88.9823 431.463 89.4521 430.311ZM95.6194 430.311L97.3469 430.736C96.8014 432.039 95.8619 433.296 94.9527 434.084C94.589 433.812 93.8162 433.418 93.3616 433.221C94.3314 432.524 95.18 431.417 95.6194 430.311ZM89.9521 432.599L91.4978 432.19C91.8766 432.706 92.3009 433.433 92.4827 433.918L90.8462 434.388C90.7098 433.918 90.3158 433.145 89.9521 432.599ZM96.7256 432.645L98.3167 432.221C98.7562 432.721 99.2865 433.448 99.529 433.933L97.847 434.403C97.65 433.948 97.1499 433.175 96.7256 432.645ZM109.742 435.312V436.615H114.334V435.312H109.742ZM109.742 432.615V433.887H114.334V432.615H109.742ZM108.106 431.069H116.061V438.146H108.106V431.069ZM108 439.449H116.228V441.085H108V439.449ZM106.939 442.54H116.728V444.176H106.939V442.54ZM102.499 431.296H107.53V432.993H102.499V431.296ZM102.651 435.66H107.272V437.342H102.651V435.66ZM102.332 441.419C103.635 441.085 105.575 440.479 107.393 439.888L107.712 441.631C106.015 442.207 104.196 442.798 102.741 443.267L102.332 441.419ZM104.181 431.963H105.908V441.282L104.181 441.555V431.963ZM111.303 431.721H112.833V437.433H113V443.313H111.136V437.433H111.303V431.721Z" fill="#D8663A"/>
<rect x="26.2556" y="487.18" width="121.12" height="47.2553" rx="23.6277" fill="white"/>
<rect x="26.2556" y="487.18" width="121.12" height="47.2553" rx="23.6277" stroke="#E9AD88" stroke-width="2"/>
<path d="M57.3728 506.155H70.7834V507.807H57.3728V506.155ZM58.8275 508.792H69.4045V510.383H58.8275V508.792ZM57.585 511.141H70.6016V514.383H68.768V512.762H59.3276V514.383H57.585V511.141ZM63.0553 504.958H64.9494V509.671H63.0553V504.958ZM64.8737 513.247H66.7072V516.808C66.7072 517.293 66.7981 517.354 67.3285 517.354C67.5861 517.354 68.571 517.354 68.859 517.354C69.359 517.354 69.4651 517.111 69.5105 515.55C69.8894 515.838 70.6622 516.126 71.1471 516.232C70.9501 518.429 70.4803 518.99 69.0408 518.99C68.662 518.99 67.4346 518.99 67.086 518.99C65.3131 518.99 64.8737 518.475 64.8737 516.838V513.247ZM61.1308 513.232H63.025C62.7977 516.293 62.1309 518.232 57.9486 519.233C57.782 518.748 57.3274 518.035 56.9485 517.657C60.5853 516.944 60.949 515.596 61.1308 513.232ZM78.7994 509.489H85.1032V511.323H78.7994V509.489ZM72.3139 516.596H86.1639V518.429H72.3139V516.596ZM77.769 505.125H79.7238V517.611H77.769V505.125ZM91.2857 517.444H98.6804V518.778H91.2857V517.444ZM93.4526 508.125H95.2104V509.944H93.4526V508.125ZM87.8611 509.171H101.044V512.186H99.2714V510.535H89.5734V512.186H87.8611V509.171ZM91.2251 511.171H98.6501V514.565H91.2251V513.262H96.8318V512.474H91.2251V511.171ZM91.3008 515.247H99.8018V519.187H97.9834V516.581H91.3008V515.247ZM90.225 511.171H91.9524V519.202H90.225V511.171ZM89.3915 506.004H94.1648V507.428H89.3915V506.004ZM95.5286 506.004H101.408V507.428H95.5286V506.004ZM89.4521 504.822L91.1493 505.276C90.5583 506.64 89.5885 508.019 88.6945 508.883C88.346 508.61 87.6186 508.125 87.2095 507.913C88.1187 507.155 88.9824 505.973 89.4521 504.822ZM95.6195 504.822L97.347 505.246C96.8014 506.549 95.862 507.807 94.9528 508.595C94.5891 508.322 93.8163 507.928 93.3617 507.731C94.3315 507.034 95.1801 505.928 95.6195 504.822ZM89.9522 507.11L91.4978 506.701C91.8767 507.216 92.3009 507.943 92.4828 508.428L90.8462 508.898C90.7099 508.428 90.3159 507.655 89.9522 507.11ZM96.7257 507.155L98.3168 506.731C98.7562 507.231 99.2866 507.959 99.529 508.443L97.847 508.913C97.65 508.459 97.15 507.686 96.7257 507.155ZM109.742 509.822V511.126H114.334V509.822H109.742ZM109.742 507.125V508.398H114.334V507.125H109.742ZM108.106 505.579H116.061V512.656H108.106V505.579ZM108 513.959H116.228V515.596H108V513.959ZM106.939 517.05H116.728V518.687H106.939V517.05ZM102.499 505.807H107.53V507.504H102.499V505.807ZM102.651 510.171H107.272V511.853H102.651V510.171ZM102.332 515.929C103.636 515.596 105.575 514.99 107.394 514.399L107.712 516.141C106.015 516.717 104.196 517.308 102.742 517.778L102.332 515.929ZM104.181 506.474H105.909V515.793L104.181 516.065V506.474ZM111.303 506.231H112.834V511.944H113V517.823H111.136V511.944H111.303V506.231Z" fill="#D8663A"/>
<path d="M88.0782 58.7178L92.599 49.2471H81.6632L86.184 58.7178H88.0782ZM87.1311 94.7067C84.3415 94.7067 82.08 96.9681 82.08 99.7577C82.08 102.547 84.3415 104.809 87.1311 104.809C89.9207 104.809 92.1822 102.547 92.1822 99.7577C92.1822 96.9681 89.9207 94.7067 87.1311 94.7067ZM86.184 57.7707V99.7577H88.0782V57.7707H86.184Z" fill="#D8663A"/>
<path d="M88.0782 171.105L92.599 161.634H81.6632L86.184 171.105H88.0782ZM87.1311 207.094C84.3415 207.094 82.08 209.355 82.08 212.145C82.08 214.935 84.3415 217.196 87.1311 217.196C89.9207 217.196 92.1822 214.935 92.1822 212.145C92.1822 209.355 89.9207 207.094 87.1311 207.094ZM86.184 170.158V212.145H88.0782V170.158H86.184Z" fill="#E9AD88"/>
<path d="M594.447 58.7178L598.968 49.2471H588.032L592.553 58.7178H594.447ZM593.5 94.7067C590.71 94.7067 588.449 96.9681 588.449 99.7577C588.449 102.547 590.71 104.809 593.5 104.809C596.29 104.809 598.551 102.547 598.551 99.7577C598.551 96.9681 596.29 94.7067 593.5 94.7067ZM592.553 57.7707V99.7577H594.447V57.7707H592.553Z" fill="#D8663A"/>
<path d="M593.5 343.471C590.71 343.471 588.449 345.733 588.449 348.522C588.449 351.312 590.71 353.573 593.5 353.573C596.29 353.573 598.551 351.312 598.551 348.522C598.551 345.733 596.29 343.471 593.5 343.471ZM592.553 536.043C592.553 536.566 592.977 536.99 593.5 536.99C594.023 536.99 594.447 536.566 594.447 536.043H592.553ZM592.553 348.522V536.043H594.447V348.522H592.553Z" fill="#D8663A"/>
<path d="M388.932 535.097L379.461 530.576V541.512L388.932 536.992V535.097ZM387.985 536.992H593.5V535.097H387.985V536.992Z" fill="#D8663A"/>
<path d="M88.0782 283.491L92.599 274.02H81.6632L86.184 283.491H88.0782ZM87.1311 319.479C84.3415 319.479 82.08 321.741 82.08 324.53C82.08 327.32 84.3415 329.582 87.1311 329.582C89.9207 329.582 92.1822 327.32 92.1822 324.53C92.1822 321.741 89.9207 319.479 87.1311 319.479ZM86.184 282.543V324.53H88.0782V282.543H86.184Z" fill="#D8663A"/>
<path d="M260.13 536.992L269.601 541.512L269.601 530.576L260.13 535.097L260.13 536.992ZM191.309 536.044C191.309 533.255 189.048 530.993 186.258 530.993C183.468 530.993 181.207 533.255 181.207 536.044C181.207 538.834 183.468 541.095 186.258 541.095C189.048 541.095 191.309 538.834 191.309 536.044ZM261.077 535.097L186.258 535.097L186.258 536.992L261.077 536.992L261.077 535.097Z" fill="#D8663A"/>
<path d="M150.269 137.01C150.269 139.799 152.531 142.061 155.32 142.061C158.11 142.061 160.372 139.799 160.372 137.01C160.372 134.22 158.11 131.959 155.32 131.959C152.531 131.959 150.269 134.22 150.269 137.01ZM251.291 137.01C251.291 139.799 253.552 142.061 256.342 142.061C259.131 142.061 261.393 139.799 261.393 137.01C261.393 134.22 259.131 131.959 256.342 131.959C253.552 131.959 251.291 134.22 251.291 137.01ZM155.32 137.957H256.342V136.063H155.32V137.957Z" fill="#D8663A"/>
<path d="M387.67 137.01C387.67 139.799 389.931 142.061 392.721 142.061C395.51 142.061 397.772 139.799 397.772 137.01C397.772 134.22 395.51 131.959 392.721 131.959C389.931 131.959 387.67 134.22 387.67 137.01ZM488.691 137.01C488.691 139.799 490.952 142.061 493.742 142.061C496.532 142.061 498.793 139.799 498.793 137.01C498.793 134.22 496.532 131.959 493.742 131.959C490.952 131.959 488.691 134.22 488.691 137.01ZM392.721 137.957H493.742V136.063H392.721V137.957Z" fill="#D8663A"/>
</svg>
