<svg width="1160" height="60" viewBox="0 0 1160 60" fill="none" xmlns="http://www.w3.org/2000/svg">
<line x1="130" y1="2" x2="1030" y2="2" stroke="#4A9C99" stroke-width="4"/>
<path d="M132 38.3333C126.109 38.3333 121.333 43.109 121.333 49C121.333 54.891 126.109 59.6667 132 59.6667C137.891 59.6667 142.667 54.891 142.667 49C142.667 43.109 137.891 38.3333 132 38.3333ZM130 4V49H134V4H130Z" fill="#4A9C99"/>
<path d="M430.667 38.3333C424.776 38.3333 420 43.109 420 49C420 54.891 424.776 59.6667 430.667 59.6667C436.558 59.6667 441.333 54.891 441.333 49C441.333 43.109 436.558 38.3333 430.667 38.3333ZM428.667 4V49H432.667V4H428.667Z" fill="#4A9C99"/>
<path d="M729.333 38.3333C723.442 38.3333 718.667 43.109 718.667 49C718.667 54.891 723.442 59.6667 729.333 59.6667C735.224 59.6667 740 54.891 740 49C740 43.109 735.224 38.3333 729.333 38.3333ZM727.333 4V49H731.333V4H727.333Z" fill="#4A9C99"/>
<path d="M1028 38.3333C1022.11 38.3333 1017.33 43.109 1017.33 49C1017.33 54.891 1022.11 59.6667 1028 59.6667C1033.89 59.6667 1038.67 54.891 1038.67 49C1038.67 43.109 1033.89 38.3333 1028 38.3333ZM1026 4V49H1030V4H1026Z" fill="#4A9C99"/>
</svg>
