<svg width="36" height="36" viewBox="0 0 36 36" fill="none" xmlns="http://www.w3.org/2000/svg">
<rect x="1" y="1" width="34" height="34" rx="17" fill="white"/>
<rect x="1" y="1" width="34" height="34" rx="17" stroke="white" stroke-width="2" stroke-linecap="round" stroke-linejoin="round" stroke-dasharray="20 10"/>
<path d="M30 17.986C30 16.056 28.43 14.486 26.5 14.486C26.494 14.486 26.489 14.488 26.484 14.488L24.933 12.007C25.589 11.37 26 10.484 26 9.5C26 7.57 24.43 6 22.5 6C20.92 6 19.597 7.059 19.163 8.5H16.837C16.403 7.059 15.08 6 13.5 6C11.57 6 10 7.57 10 9.5C10 10.484 10.411 11.37 11.067 12.007L9.516 14.488C9.51 14.488 9.505 14.486 9.5 14.486C7.57 14.486 6 16.056 6 17.986C6 19.916 7.57 21.486 9.5 21.486L11.067 23.993C10.411 24.63 10 25.516 10 26.5C10 28.43 11.57 30 13.5 30C15.08 30 16.403 28.941 16.837 27.5H19.163C19.597 28.941 20.92 30 22.5 30C24.43 30 26 28.43 26 26.5C26 25.516 25.589 24.63 24.933 23.993L26.5 21.486C28.43 21.486 30 19.916 30 17.986ZM28 17.986C28 18.813 27.327 19.486 26.5 19.486C25.673 19.486 25 18.813 25 17.986C25 17.159 25.673 16.486 26.5 16.486C27.327 16.486 28 17.159 28 17.986ZM22.5 8C23.327 8 24 8.673 24 9.5C24 10.327 23.327 11 22.5 11C21.673 11 21 10.327 21 9.5C21 8.673 21.673 8 22.5 8ZM13.5 8C14.327 8 15 8.673 15 9.5C15 10.327 14.327 11 13.5 11C12.673 11 12 10.327 12 9.5C12 8.673 12.673 8 13.5 8ZM8 17.986C8 17.159 8.673 16.486 9.5 16.486C10.327 16.486 11 17.159 11 17.986C11 18.813 10.327 19.486 9.5 19.486C8.673 19.486 8 18.813 8 17.986ZM13.5 28C12.673 28 12 27.327 12 26.5C12 25.673 12.673 25 13.5 25C14.327 25 15 25.673 15 26.5C15 27.327 14.327 28 13.5 28ZM22.5 28C21.673 28 21 27.327 21 26.5C21 25.673 21.673 25 22.5 25C23.327 25 24 25.673 24 26.5C24 27.327 23.327 28 22.5 28ZM22.5 23C20.92 23 19.597 24.059 19.163 25.5H16.837C16.403 24.059 15.08 23 13.5 23C13.276 23 13.058 23.026 12.845 23.066L11.474 20.872C12.394 20.241 13 19.183 13 17.986C13 16.789 12.398 15.742 11.485 15.109L12.845 12.933C13.058 12.974 13.276 12.999 13.5 12.999C15.08 12.999 16.403 11.94 16.837 10.499H19.163C19.597 11.94 20.92 12.999 22.5 12.999C22.724 12.999 22.942 12.973 23.155 12.933L24.515 15.109C23.602 15.741 23 16.794 23 17.986C23 19.178 23.606 20.241 24.526 20.872L23.155 23.066C22.942 23.025 22.724 23 22.5 23ZM21.4 14.887L20.398 15.464C20.007 15.094 19.528 14.822 19 14.663V13.5H17V14.663C16.471 14.822 15.993 15.094 15.602 15.464L14.6 14.887L13.602 16.62L14.602 17.196C14.541 17.455 14.5 17.722 14.5 17.999C14.5 18.276 14.541 18.543 14.602 18.802L13.602 19.379L14.6 21.111L15.601 20.534C15.992 20.905 16.471 21.176 17 21.336V22.499H19V21.336C19.529 21.177 20.008 20.905 20.399 20.534L21.4 21.111L22.398 19.379L21.398 18.802C21.459 18.543 21.5 18.276 21.5 17.999C21.5 17.722 21.459 17.455 21.398 17.196L22.398 16.62L21.4 14.887ZM18 19.5C17.173 19.5 16.5 18.827 16.5 18C16.5 17.173 17.173 16.5 18 16.5C18.827 16.5 19.5 17.173 19.5 18C19.5 18.827 18.827 19.5 18 19.5Z" fill="#E2893F"/>
</svg>
