<svg width="24" height="24" viewBox="0 0 24 24" fill="none" xmlns="http://www.w3.org/2000/svg">
<path d="M18.59 0H5.41C2.422 0 0 2.422 0 5.41V18.59C0 21.578 2.422 24 5.41 24H18.59C21.578 24 24 21.578 24 18.59V5.41C24 2.422 21.577 0 18.59 0ZM18.284 14.865C16.605 16.797 12.852 19.151 11.998 19.511C11.144 19.871 11.27 19.282 11.305 19.079C11.326 18.959 11.419 18.394 11.419 18.394C11.446 18.19 11.474 17.873 11.393 17.671C11.303 17.448 10.949 17.333 10.688 17.276C6.843 16.768 3.996 14.08 3.996 10.87C3.996 7.29 7.586 4.376 11.998 4.376C16.41 4.376 20 7.289 20 10.87C19.999 12.302 19.444 13.593 18.284 14.865Z" fill="white"/>
<path d="M15.81 10.0122V10.6012H17.338C17.422 10.6012 17.491 10.6702 17.491 10.7542V11.3222C17.491 11.4062 17.423 11.4752 17.338 11.4752H15.81V12.0642H17.338C17.422 12.0642 17.491 12.1332 17.491 12.2172V12.7852C17.491 12.8692 17.423 12.9372 17.338 12.9372H15.09C15.006 12.9372 14.937 12.8692 14.937 12.7852V9.29216C14.937 9.20816 15.005 9.13916 15.09 9.13916H17.338C17.422 9.13916 17.491 9.20716 17.491 9.29216V9.85916C17.491 9.94316 17.423 10.0122 17.338 10.0122H15.81Z" fill="white"/>
<path d="M9.17397 12.2172V12.7852C9.17397 12.8692 9.10597 12.9372 9.02097 12.9372H6.77297C6.68897 12.9372 6.62097 12.8692 6.62097 12.7852V9.29216C6.62097 9.20816 6.68897 9.13916 6.77297 9.13916H7.34097C7.42497 9.13916 7.49397 9.20716 7.49397 9.29216V12.0642H9.02197C9.10597 12.0642 9.17397 12.1332 9.17397 12.2172Z" fill="white"/>
<path d="M10.528 9.29216V12.7842C10.528 12.8682 10.46 12.9362 10.375 12.9362H9.80803C9.72403 12.9362 9.65503 12.8682 9.65503 12.7842V9.29216C9.65503 9.20816 9.72303 9.13916 9.80803 9.13916H10.375C10.459 9.13916 10.528 9.20816 10.528 9.29216Z" fill="white"/>
<path d="M14.391 9.29216V12.7842C14.391 12.8682 14.323 12.9362 14.238 12.9362H13.674C13.624 12.9362 13.575 12.9112 13.546 12.8702L11.946 10.7102V12.7842C11.946 12.8682 11.878 12.9362 11.793 12.9362H11.225C11.141 12.9362 11.072 12.8682 11.072 12.7842V9.29216C11.072 9.20816 11.14 9.13916 11.225 9.13916H11.789C11.842 9.13916 11.888 9.16716 11.919 9.20816L13.517 11.3662V9.29216C13.517 9.20816 13.585 9.13916 13.67 9.13916H14.238C14.323 9.13916 14.391 9.20816 14.391 9.29216Z" fill="white"/>
</svg>
