<svg width="80" height="80" viewBox="0 0 80 80" fill="none" xmlns="http://www.w3.org/2000/svg">
<rect width="80" height="80" rx="40" fill="#D8663A"/>
<path d="M47.5467 54.2267C46.84 54.2267 45.9333 54 44.8 53.3333L40.8133 50.9733C40.4 50.7333 39.6 50.7333 39.2 50.9733L35.2 53.3333C32.84 54.7333 31.4533 54.1733 30.8267 53.72C30.2133 53.2667 29.2533 52.1067 29.88 49.44L30.8267 45.3467C30.9333 44.92 30.72 44.1867 30.4 43.8667L27.0933 40.56C25.44 38.9067 25.5733 37.4933 25.8 36.8C26.0267 36.1067 26.7467 34.88 29.04 34.4933L33.2933 33.7867C33.6933 33.72 34.2667 33.2933 34.44 32.9333L36.8 28.2267C37.8667 26.08 39.2667 25.76 40 25.76C40.7333 25.76 42.1333 26.08 43.2 28.2267L45.5467 32.92C45.7333 33.28 46.3067 33.7067 46.7067 33.7733L50.96 34.48C53.2667 34.8667 53.9867 36.0933 54.2 36.7867C54.4133 37.48 54.5467 38.8933 52.9067 40.5467L49.6 43.8667C49.28 44.1867 49.08 44.9067 49.1733 45.3467L50.12 49.44C50.7333 52.1067 49.7867 53.2667 49.1733 53.72C48.84 53.96 48.3067 54.2267 47.5467 54.2267ZM40 48.7867C40.6533 48.7867 41.3067 48.9467 41.8267 49.2533L45.8133 51.6133C46.9733 52.3067 47.7067 52.3067 47.9867 52.1067C48.2667 51.9067 48.4667 51.2 48.1733 49.8933L47.2267 45.8C46.9733 44.6933 47.3867 43.2667 48.1867 42.4533L51.4933 39.1467C52.1467 38.4933 52.44 37.8533 52.3067 37.4133C52.16 36.9733 51.5467 36.6133 50.64 36.4667L46.3867 35.76C45.36 35.5867 44.24 34.76 43.7733 33.8267L41.4267 29.1333C41 28.28 40.4667 27.7733 40 27.7733C39.5333 27.7733 39 28.28 38.5867 29.1333L36.2267 33.8267C35.76 34.76 34.64 35.5867 33.6133 35.76L29.3733 36.4667C28.4667 36.6133 27.8533 36.9733 27.7067 37.4133C27.56 37.8533 27.8667 38.5067 28.52 39.1467L31.8267 42.4533C32.6267 43.2533 33.04 44.6933 32.7867 45.8L31.84 49.8933C31.5333 51.2133 31.7467 51.9067 32.0267 52.1067C32.3067 52.3067 33.0267 52.2933 34.2 51.6133L38.1867 49.2533C38.6933 48.9467 39.3467 48.7867 40 48.7867Z" fill="white"/>
</svg>
