<svg width="24" height="24" viewBox="0 0 24 24" fill="none" xmlns="http://www.w3.org/2000/svg">
<path d="M21.543 7.10385C21.557 7.31485 21.557 7.52685 21.557 7.73985C21.557 14.2469 16.603 21.7499 7.547 21.7499V21.7459C4.872 21.7499 2.252 20.9839 0 19.5389C0.389 19.5859 0.78 19.6089 1.172 19.6099C3.39 19.6119 5.544 18.8679 7.287 17.4979C5.18 17.4579 3.332 16.0839 2.687 14.0779C3.425 14.2199 4.185 14.1909 4.91 13.9939C2.612 13.5299 0.96 11.5109 0.96 9.16685C0.96 9.14585 0.96 9.12485 0.96 9.10485C1.645 9.48685 2.411 9.69785 3.195 9.72085C1.031 8.27585 0.363 5.39785 1.67 3.14785C4.17 6.22385 7.859 8.09385 11.818 8.29285C11.421 6.58285 11.964 4.79085 13.242 3.58785C15.225 1.72285 18.344 1.81885 20.209 3.80185C21.312 3.58485 22.369 3.17985 23.336 2.60685C22.968 3.74685 22.199 4.71485 21.171 5.33085C22.148 5.21385 23.101 4.95285 24 4.55485C23.339 5.54385 22.507 6.40685 21.543 7.10385Z" fill="white"/>
</svg>
